HIERARCHY
ROOT Hips
{
	OFFSET 0.00000 0.00000 0.00000
	CHANNELS 6 Xposition Yposition Zposition Zrotation Yrotation Xrotation 
	JOINT RightUpLegDummy
	{
		OFFSET 0 0 0
		CHANNELS 3 Zrotation Yrotation Xrotation
		JOINT RightUpLeg
		{
			OFFSET -3.52197 -3.41223 0.04002
			CHANNELS 3 Zrotation Yrotation Xrotation
			JOINT RightLeg
			{
				OFFSET 0.00006 -17.42390 1.60435
				CHANNELS 3 Zrotation Yrotation Xrotation
				JOINT RightFoot
				{
					OFFSET 0.06153 -16.50078 -1.63901
					CHANNELS 3 Zrotation Yrotation Xrotation
					JOINT RightToes
					{
						OFFSET 0.00298 -1.73825 3.34613
						CHANNELS 3 Zrotation Yrotation Xrotation
						End Site
						{
							OFFSET 0.00480 -0.05416 3.85043
						}
					}
				}
			}
		}
	}
	JOINT SpineDummy
	{
		OFFSET 0 0 0
		CHANNELS 3 Zrotation Yrotation Xrotation
		JOINT Spine
		{
			OFFSET 0.00000 4.68130 0.00000
			CHANNELS 3 Zrotation Yrotation Xrotation
			JOINT Spine1
			{
				OFFSET -0.00000 10.10138 0.05002
				CHANNELS 3 Zrotation Yrotation Xrotation
				JOINT HEadDummy
				{
					OFFSET 0 0 0
					CHANNELS 3 Zrotation Yrotation Xrotation
					JOINT Head
					{
						OFFSET -0.00000 3.43865 0.00438
						CHANNELS 3 Zrotation Yrotation Xrotation
						End Site
						{
							OFFSET -0.11417 5.02924 0.98962
						}
					}
				}
				JOINT LeftShoulder1Dummy
				{
					OFFSET 0 0 0
					CHANNELS 3 Zrotation Yrotation Xrotation
					JOINT LeftShoulder1
					{
						OFFSET 3.53937 -0.14262 -0.08662
						CHANNELS 3 Zrotation Yrotation Xrotation
						JOINT LeftArm
						{
							OFFSET 4.04833 -0.00133 0.12681
							CHANNELS 3 Zrotation Yrotation Xrotation
							JOINT LeftForeArm
							{
								OFFSET 10.33880 -0.01036 -0.55515
								CHANNELS 3 Zrotation Yrotation Xrotation
								JOINT LeftHand
								{
									OFFSET 8.69677 0.07543 0.40060
									CHANNELS 3 Zrotation Yrotation Xrotation
									End Site
									{
										OFFSET 5.28377 -0.21905 0.59205
									}
								}
							}
						}
					}
				}
				JOINT RightShoulderDummy
				{
					OFFSET 0 0 0
					CHANNELS 3 Zrotation Yrotation Xrotation
					JOINT RightShoulder
					{
						OFFSET -3.53937 -0.14262 -0.08660
						CHANNELS 3 Zrotation Yrotation Xrotation
						JOINT RightArm
						{
							OFFSET -4.04833 -0.00133 0.12683
							CHANNELS 3 Zrotation Yrotation Xrotation
							JOINT RightForeArm
							{
								OFFSET -10.37987 -0.01039 -0.55511
								CHANNELS 3 Zrotation Yrotation Xrotation
								JOINT RightHand
								{
									OFFSET -8.67398 0.07538 0.40058
									CHANNELS 3 Zrotation Yrotation Xrotation
									End Site
									{
										OFFSET -5.24810 -0.21916 0.59204
									}
								}
							}
						}
					}
				}
			}
		}
	}
	JOINT LeftUpLegDummy
	{
		OFFSET 0 0 0
		CHANNELS 3 Zrotation Yrotation Xrotation
		JOINT LeftUpLeg
		{
			OFFSET 3.52197 -3.41223 0.04002
			CHANNELS 3 Zrotation Yrotation Xrotation
			JOINT LeftLeg
			{
				OFFSET -0.00012 -17.42399 1.60337
				CHANNELS 3 Zrotation Yrotation Xrotation
				JOINT LeftFoot
				{
					OFFSET -0.09972 -16.50070 -1.63802
					CHANNELS 3 Zrotation Yrotation Xrotation
					JOINT LeftToes
					{
						OFFSET -0.01575 -1.73823 3.34611
						CHANNELS 3 Zrotation Yrotation Xrotation
						End Site
						{
							OFFSET 0.03150 -0.01868 3.85031
						}
					}
				}
			}
		}
	}
}
MOTION
Frames: 12
Frame Time: 0.033333
0.5433 38.4410 37.7994 177.5850 42.2314 175.2230 0.0000 0.0000 0.0000 -4.2815 -11.3293 2.6870 13.1066 10.4330 47.0695 24.5951 -3.1526 3.0339 0.0000 -0.0000 -0.0000 0.0000 0.0000 0.0000 2.6511 5.9146 5.7481 -2.7434 6.5013 -0.0667 -0.0000 0.0000 -0.0000 -3.8819 15.5670 -11.0386 -0.0000 0.0000 -0.0000 -34.2135 -2.7883 2.5322 -41.1420 -10.0589 -24.1370 -8.1265 5.3304 41.4411 12.7403 -1.3260 -0.7247 -0.0000 0.0000 -0.0000 34.6873 5.2235 3.5524 38.1602 9.5118 -12.2323 12.2798 -0.7895 25.3472 -10.4688 1.4527 -0.6045 0.0000 0.0000 0.0000 -6.7932 -0.9237 -13.9117 1.8183 11.3091 19.4094 4.2300 -0.1623 -5.9805 0.0000 0.0000 -0.0000
1.2791 38.5276 37.0214 178.4840 41.4563 175.1750 0.0000 0.0000 0.0000 -4.1973 -11.0237 -0.5928 5.6890 4.1238 49.6285 18.2242 -1.8910 0.4209 0.0000 -0.0000 -0.0000 0.0000 0.0000 0.0000 2.5625 5.0070 6.5345 -1.6643 5.4193 -0.1463 -0.0000 0.0000 -0.0000 -4.1693 16.7468 -11.1748 -0.0000 0.0000 -0.0000 -34.2349 -2.8453 2.5565 -42.1003 -10.5968 -22.0551 -9.2420 5.3420 40.4843 12.7352 -1.8828 -0.7817 -0.0000 0.0000 -0.0000 34.6039 5.2119 3.5404 37.2843 9.5740 -12.4182 12.1904 -0.3317 25.4244 -10.5596 1.6027 -0.6223 0.0000 0.0000 0.0000 -6.3842 -0.5324 -11.6581 1.7513 10.1913 20.0325 4.7203 -0.1100 -7.5619 0.0000 0.0000 -0.0000
2.0256 38.6305 36.2690 179.6010 39.8621 175.1170 0.0000 0.0000 0.0000 -3.8703 -10.9566 -3.2142 -1.1365 -0.5994 50.1945 12.8677 -1.0957 -1.6642 0.0000 -0.0000 -0.0000 0.0000 0.0000 0.0000 2.4307 3.9132 7.3880 -0.3827 4.1120 -0.0431 -0.0000 0.0000 -0.0000 -4.2977 17.3126 -11.4264 -0.0000 0.0000 -0.0000 -34.1273 -2.9641 2.5972 -42.9675 -11.9953 -19.9929 -10.1058 5.3361 40.3303 13.1965 -2.3313 -0.8585 -0.0000 0.0000 -0.0000 34.6701 5.2208 3.5498 36.4393 9.2178 -13.1178 11.9314 0.8247 24.1476 -10.8242 1.8577 -0.6603 0.0000 0.0000 0.0000 -5.7150 -0.0304 -9.2347 1.3531 8.4871 20.5464 5.2110 -0.0429 -9.1877 0.0000 0.0000 -0.0000
2.7822 38.7508 35.5364 -179.3340 38.3150 175.0630 0.0000 0.0000 0.0000 -3.3626 -10.1459 -5.5692 -4.9020 -3.2988 48.9322 8.7279 -0.6395 -3.1299 0.0000 -0.0000 -0.0000 0.0000 0.0000 0.0000 2.4014 3.0913 8.2009 0.7319 3.1001 0.0314 -0.0000 0.0000 -0.0000 -4.1970 17.3600 -11.5136 -0.0000 0.0000 -0.0000 -33.8926 -3.0770 2.6268 -43.6967 -14.0506 -18.1742 -10.7111 5.3273 40.3987 13.7061 -2.6542 -0.9284 -0.0000 0.0000 -0.0000 34.8654 5.2478 3.5782 35.7742 8.3928 -14.1058 11.6278 2.2391 21.7595 -11.5314 1.9346 -0.7117 0.0000 0.0000 0.0000 -4.7607 0.6400 -6.7382 0.6514 6.6563 20.6323 5.4218 0.0232 -10.5025 0.0000 0.0000 -0.0000
3.5426 38.8403 34.8143 -178.4980 37.3451 175.0500 0.0000 0.0000 0.0000 -2.8409 -8.3222 -7.8931 -6.6508 -5.0833 46.0057 6.2526 -0.3799 -4.6632 0.0000 -0.0000 -0.0000 0.0000 0.0000 0.0000 2.5331 2.6744 8.8718 1.4584 2.5661 -0.0433 -0.0000 0.0000 -0.0000 -3.8974 17.2295 -11.1871 -0.0000 0.0000 -0.0000 -33.5880 -3.0859 2.6101 -44.2680 -16.2792 -16.6613 -11.1638 5.3282 40.1265 13.8905 -3.0097 -0.9813 -0.0000 0.0000 -0.0000 35.0129 5.2706 3.6006 35.4509 7.5017 -15.1015 11.3491 3.1488 19.5585 -12.2275 1.9455 -0.7570 0.0000 0.0000 0.0000 -3.7288 1.3314 -4.3225 -0.0474 5.1329 20.4285 5.3426 0.0850 -11.6635 0.0000 0.0000 -0.0000
4.3117 38.8806 34.0894 -177.9010 36.8240 175.1160 0.0000 0.0000 0.0000 -2.5515 -6.1198 -10.0883 -7.3064 -6.5618 41.6541 5.9798 -0.3227 -5.5586 0.0000 -0.0000 -0.0000 0.0000 0.0000 0.0000 2.7394 2.4937 9.2816 1.8764 2.3261 -0.1433 -0.0000 0.0000 -0.0000 -3.5724 17.0493 -10.4994 -0.0000 0.0000 -0.0000 -33.3615 -2.9971 2.5602 -44.6050 -18.2420 -15.2716 -11.6201 5.3580 39.2006 13.8328 -3.3798 -1.0186 -0.0000 0.0000 -0.0000 35.0232 5.2777 3.6045 35.4365 6.9362 -15.8518 11.1407 3.1591 18.5802 -12.3835 2.0398 -0.7763 0.0000 0.0000 0.0000 -2.8427 1.8570 -2.1243 -0.4147 4.1453 20.2449 5.1920 0.1551 -13.0335 0.0000 0.0000 -0.0000
5.0908 38.9386 33.3564 -177.4820 36.4440 175.3130 0.0000 0.0000 0.0000 -2.5157 -4.1209 -11.9426 -6.7077 -7.3590 35.8623 6.2106 -0.3612 -5.0246 0.0000 -0.0000 -0.0000 0.0000 0.0000 0.0000 2.9004 2.4044 9.3413 2.1920 2.1873 -0.1073 -0.0000 0.0000 -0.0000 -3.4626 16.8471 -9.8028 -0.0000 0.0000 -0.0000 -33.3462 -2.9172 2.5277 -44.6568 -19.7603 -13.8562 -12.1214 5.2910 37.7368 13.8662 -3.5043 -1.0352 -0.0000 0.0000 -0.0000 35.0129 5.2837 3.6060 35.5040 6.7128 -16.2529 11.0347 2.4560 18.8538 -12.0916 2.1176 -0.7651 0.0000 0.0000 0.0000 -2.1403 2.1896 0.0295 -0.5126 3.5380 19.6229 5.1002 0.2122 -14.1888 0.0000 0.0000 -0.0000
5.8663 39.0315 32.6257 -177.2090 36.1554 175.6390 0.0000 0.0000 0.0000 -2.6706 -2.3950 -13.2946 -5.3112 -7.5351 28.5869 5.9973 -0.4374 -3.2358 0.0000 -0.0000 -0.0000 0.0000 0.0000 0.0000 3.0631 2.3980 9.1257 2.3966 2.1448 0.0572 -0.0000 0.0000 -0.0000 -3.6098 16.5947 -9.3899 -0.0000 0.0000 -0.0000 -33.4252 -2.8959 2.5245 -44.5961 -20.9031 -12.5351 -12.5326 4.4070 36.3939 14.1594 -3.3107 -1.0356 -0.0000 0.0000 -0.0000 35.0924 5.3006 3.6201 35.5368 6.6358 -16.4752 10.9855 1.3959 19.8052 -11.6699 2.0418 -0.7306 0.0000 0.0000 0.0000 -1.5331 2.4523 2.2424 -0.6164 3.0231 18.3129 5.0507 0.2381 -14.7310 0.0000 0.0000 -0.0000
6.6389 39.1025 31.8973 -177.1040 35.9997 175.9910 0.0000 0.0000 0.0000 -2.9469 -1.1995 -14.0498 -4.0550 -8.0332 20.2215 6.3293 -0.5901 -0.7889 0.0000 -0.0000 -0.0000 0.0000 0.0000 0.0000 3.2903 2.4537 8.7858 2.3893 2.2046 0.2665 -0.0000 0.0000 -0.0000 -3.8286 16.3902 -9.2862 -0.0000 0.0000 -0.0000 -33.3559 -2.8802 2.5138 -44.6693 -21.7379 -11.4815 -12.7743 2.5447 35.6462 14.5890 -3.1044 -1.0438 -0.0000 0.0000 -0.0000 35.1883 5.3163 3.6351 35.6622 6.6054 -16.7766 10.8997 0.1701 20.9056 -11.2299 1.8474 -0.6848 0.0000 0.0000 0.0000 -0.9601 2.7585 4.4789 -0.8820 2.5068 16.6732 4.9940 0.2512 -15.0306 0.0000 0.0000 -0.0000
7.4174 39.1643 31.1763 -177.2070 35.8038 176.2630 0.0000 0.0000 0.0000 -3.0539 -1.2856 -14.2506 -2.9030 -8.6820 11.4572 7.1921 -0.7932 1.3169 0.0000 -0.0000 -0.0000 0.0000 0.0000 0.0000 3.3988 2.4749 8.4391 2.3443 2.2286 0.4455 -0.0000 0.0000 -0.0000 -3.9773 16.2815 -9.3495 -0.0000 0.0000 -0.0000 -33.2047 -2.8415 2.4890 -44.7778 -22.2225 -10.7161 -12.9408 1.1886 35.1757 14.9156 -3.1622 -1.0750 -0.0000 0.0000 -0.0000 35.2130 5.3200 3.6389 35.9717 6.5730 -17.1689 10.7697 -1.0283 21.8003 -10.9296 1.6221 -0.6464 0.0000 0.0000 0.0000 -0.4347 3.1125 6.8695 -1.3000 1.9293 14.5856 4.8877 0.2551 -15.1788 0.0000 0.0000 -0.0000
8.2127 39.2502 30.4815 -177.5060 35.3839 176.4530 0.0000 0.0000 0.0000 -2.8608 -2.5055 -14.1947 -1.4481 -7.9214 3.2830 7.6752 -0.8664 1.6093 0.0000 -0.0000 -0.0000 0.0000 0.0000 0.0000 3.1524 2.4357 8.0940 2.5570 2.1226 0.5980 -0.0000 0.0000 -0.0000 -4.1130 16.1748 -9.4985 -0.0000 0.0000 -0.0000 -33.2857 -2.8246 2.4875 -44.6001 -22.4190 -10.2757 -13.0821 0.4244 34.9341 15.0183 -3.3788 -1.1092 -0.0000 0.0000 -0.0000 35.2563 5.3263 3.6454 36.3254 6.3788 -17.4878 10.6681 -1.8641 22.2505 -10.9851 1.3900 -0.6296 0.0000 0.0000 0.0000 0.0200 3.4554 9.3238 -1.7351 1.1628 12.1280 4.6905 0.2320 -14.8265 0.0000 0.0000 -0.0000
9.0639 39.2738 29.7852 -177.9350 34.9172 176.5470 0.0000 0.0000 0.0000 -2.9877 -2.6515 -14.4379 -0.1083 -6.3468 -2.3203 8.1786 -0.7560 -0.7903 0.0000 -0.0000 -0.0000 0.0000 0.0000 0.0000 2.6526 2.4592 7.6339 2.9455 2.0368 0.8738 -0.0000 0.0000 -0.0000 -4.2916 15.9677 -9.7498 -0.0000 0.0000 -0.0000 -33.5741 -2.8479 2.5151 -44.1962 -22.5401 -10.3320 -13.1161 0.6202 35.1089 14.9898 -3.5018 -1.1220 -0.0000 0.0000 -0.0000 35.4392 5.3512 3.6722 36.5940 5.8884 -17.7292 10.5991 -2.1664 22.2930 -11.2590 1.2307 -0.6315 0.0000 0.0000 0.0000 0.4224 3.7579 11.3449 -2.0345 0.3302 10.6867 4.3013 0.2041 -14.4637 0.0000 0.0000 -0.0000
